<svg width="2444" height="1929" viewBox="0 0 2444 1929" fill="none" xmlns="http://www.w3.org/2000/svg">
<path d="M7.48665 32.3995C83.093 308.273 225.755 517.99 456.624 693.505C536.731 754.26 588.935 788.013 707.745 855.968C752.602 881.31 787.469 921.199 806.582 969.042L847.707 1071.99C886.86 1169.19 921.963 1255.6 926.464 1263.7C930.964 1272.25 933.214 1279.9 932.314 1280.8C929.614 1283.5 842.307 1119.24 792.352 1017.53L786.445 1005.51C765.375 962.626 731.821 927.124 690.194 903.672C555.633 828.516 453.924 757.86 347.715 665.603C291.46 616.548 205.053 526.991 173.551 485.137C165 473.436 157.349 464.436 156.449 465.336C154.199 467.586 179.851 517.99 212.704 576.045C354.466 827.616 567.784 1051.73 881.01 1278.1C915.982 1303.3 944.967 1335.89 965.898 1373.57L985.869 1409.51C1014.22 1461.27 1069.13 1563.43 1107.38 1636.78C1145.63 1710.59 1175.78 1765.94 1174.43 1759.64C1173.08 1753.34 1158.23 1682.69 1141.13 1602.13C1124.03 1521.57 1099.73 1409.06 1087.13 1352.36C1063.73 1246.6 1030.87 1091.34 1005.67 968.928L997.674 930.944C993.499 911.116 995.344 890.492 1002.97 871.72C1019.87 829.351 1038.46 780.763 1051.3 745.915C1062.75 714.85 1051.23 694.828 1018.72 688.554C993.069 683.604 937.715 670.103 895.411 658.852C670.842 597.647 489.927 512.59 337.364 396.48C282.01 354.626 188.852 264.619 140.698 207.014C101.995 161.11 31.7887 59.4019 13.3371 22.4988C7.03661 10.3478 1.18612 -0.00317383 0.286044 -0.00317383C-1.06407 -0.00317383 2.53623 14.8481 7.48665 32.3995Z" fill="white"/>
<path d="M1215.65 135.346C1215.65 139.846 1211.6 198.351 1205.74 264.507L1197.82 361.046C1196.53 376.791 1199.58 392.589 1206.64 406.719C1211.47 416.371 1224.91 417.241 1230.94 408.291L1232 406.719C1238.64 395.287 1241.66 382.11 1240.66 368.926L1237.7 329.762C1228.7 207.352 1221.5 132.195 1218.35 129.495C1217 128.145 1215.65 130.395 1215.65 135.346Z" fill="white"/>
<path d="M1113.78 209.813C1114.68 221.514 1119.18 269.218 1123.68 315.572C1127.73 362.376 1130.43 400.179 1129.08 400.179C1127.28 400.179 1119.63 391.178 1111.98 380.827C1103.88 370.477 1089.03 352.925 1079.13 341.674C1075.23 337.17 1067.96 341.262 1069.78 346.936L1081.83 384.428C1093.08 419.081 1104.78 455.984 1107.93 466.335C1111.53 477.135 1113.33 485.686 1111.98 485.686C1110.63 485.686 1103.88 481.636 1096.68 476.235C1089.48 471.285 1083.63 468.585 1083.63 470.385C1083.63 472.185 1091.73 488.386 1101.63 506.838C1111.53 524.839 1117.83 539.691 1114.68 539.691C1111.98 539.691 1117.83 548.691 1127.73 559.942C1138.98 572.993 1152.04 595.945 1162.39 622.048C1179.49 665.251 1216.84 726.006 1223.59 721.506C1234.39 715.205 1263.65 663.451 1279.4 622.948C1291.1 592.345 1302.35 572.093 1314.5 559.042C1324.4 548.241 1329.8 539.691 1326.65 539.691C1323.5 539.691 1329.35 525.289 1340.15 505.488C1350.5 486.586 1357.7 470.385 1356.35 469.035C1355 467.685 1347.8 471.285 1340.6 476.685C1332.95 482.086 1326.65 485.236 1326.65 484.336C1326.65 482.986 1334.75 458.234 1344.2 428.531C1364.9 365.976 1376.15 329.973 1376.15 325.923C1376.15 324.573 1369.85 330.873 1361.75 340.324C1353.65 349.775 1338.35 367.326 1327.1 379.477C1320.79 386.364 1309.34 381.223 1310.3 371.929L1310.45 370.477C1317.65 299.371 1326.65 191.361 1325.3 190.011C1324.4 189.111 1306.85 238.615 1286.15 299.821C1265 363.276 1243.84 418.18 1237.09 427.181C1236.69 427.732 1236.28 428.259 1235.88 428.762C1229.35 436.88 1215.07 437.34 1208.29 429.431C1194.34 412.33 1172.74 358.325 1133.13 240.416C1115.13 186.861 1111.08 180.561 1113.78 209.813ZM1174.54 518.989C1188.04 532.94 1191.64 540.141 1191.64 552.742V553.715C1191.64 558.324 1185.68 560.156 1183.09 556.342C1178.59 549.591 1170.94 540.591 1165.54 536.99C1160.59 533.39 1152.04 519.439 1147.09 505.938C1135.38 474.435 1135.38 470.835 1147.99 487.936C1153.39 495.137 1165.09 509.538 1174.54 518.989ZM1295.15 509.538C1289.75 523.939 1282.1 535.64 1277.6 537.44C1273.55 538.791 1265.45 547.341 1259.59 556.792C1257.36 560.543 1251.59 558.556 1252.15 554.227L1252.39 552.292C1254.64 535.19 1259.14 526.64 1277.15 507.288C1286.89 496.821 1295.48 486.353 1298.73 481.458C1299.79 479.858 1299.53 476.155 1301.12 477.245C1302.25 478.028 1302.66 480.042 1302.63 481.422C1302.53 486.345 1299.32 497.782 1295.15 509.538Z" fill="white"/>
<path d="M1133.6 642.306C1138.55 687.76 1131.35 733.664 1102.1 847.523C1099.64 856.895 1097.29 866.045 1095.07 874.804C1081.55 928.2 1081.71 982.81 1088.93 1037.41C1096.99 1098.29 1109.7 1196.79 1128.65 1345.27C1176.35 1719.25 1202.9 1916.36 1207.41 1928.06C1208.31 1930.31 1209.21 1666.59 1209.21 1341.66L1209.63 782.844C1209.65 761.941 1203.38 741.515 1191.65 724.213C1181.75 709.362 1164.2 678.759 1153.4 656.257C1150.47 650.288 1147.67 644.563 1145.11 639.35C1136.6 622.056 1131.53 623.146 1133.6 642.306Z" fill="white"/>
<path d="M2435.99 32.3995C2360.38 308.273 2217.72 517.99 1986.85 693.505C1906.75 754.26 1854.54 788.013 1735.73 855.968C1690.87 881.31 1656.01 921.199 1636.89 969.042L1595.77 1071.99C1556.62 1169.19 1521.51 1255.6 1517.01 1263.7C1512.51 1272.25 1510.26 1279.9 1511.16 1280.8C1513.86 1283.5 1601.17 1119.24 1651.12 1017.53L1657.03 1005.51C1678.1 962.626 1711.66 927.124 1753.28 903.672C1887.84 828.516 1989.55 757.86 2095.76 665.603C2152.02 616.548 2238.42 526.991 2269.93 485.137C2278.48 473.436 2286.13 464.436 2287.03 465.336C2289.28 467.586 2263.63 517.99 2230.77 576.045C2089.01 827.616 1875.69 1051.73 1562.47 1278.1C1527.49 1303.3 1498.51 1335.89 1477.58 1373.57L1457.61 1409.51C1429.26 1461.27 1374.35 1563.43 1336.1 1636.78C1297.84 1710.59 1267.69 1765.94 1269.04 1759.64C1270.39 1753.34 1285.24 1682.69 1302.34 1602.13C1319.45 1521.57 1343.75 1409.06 1356.35 1352.36C1379.75 1246.6 1412.6 1091.34 1437.81 968.928L1445.8 930.944C1449.98 911.116 1448.13 890.492 1440.51 871.72C1423.61 829.351 1405.02 780.763 1392.17 745.915C1380.72 714.85 1392.25 694.828 1424.76 688.554C1450.41 683.604 1505.76 670.103 1548.07 658.852C1772.63 597.647 1953.55 512.59 2106.11 396.48C2161.47 354.626 2254.62 264.619 2302.78 207.014C2341.48 161.11 2411.69 59.4019 2430.14 22.4988C2436.44 10.3478 2442.29 -0.00317383 2443.19 -0.00317383C2444.54 -0.00317383 2440.94 14.8481 2435.99 32.3995Z" fill="white"/>
<path d="M1308.56 642.673C1303.61 688.127 1310.81 734.031 1340.06 847.891C1342.51 857.262 1344.87 866.412 1347.09 875.171C1360.6 928.567 1360.45 983.177 1353.22 1037.78C1345.17 1098.65 1332.45 1197.16 1313.51 1345.63C1265.8 1719.61 1239.25 1916.73 1234.75 1928.43C1233.85 1930.68 1232.95 1666.96 1232.95 1342.03L1232.53 783.212C1232.51 762.308 1238.77 741.882 1250.5 724.58C1260.4 709.729 1277.95 679.126 1288.76 656.625C1291.68 650.655 1294.49 644.93 1297.05 639.717C1305.55 622.423 1310.63 623.513 1308.56 642.673Z" fill="white"/>
<path d="M1246.27 665.665C1243.17 672.562 1237.09 676.339 1234.83 675.325C1232.57 674.311 1240.14 665.67 1243.23 658.773C1246.33 651.876 1243.77 649.335 1246.03 650.349C1248.29 651.362 1249.36 658.768 1246.27 665.665Z" fill="black"/>
<path d="M1196.68 665.68C1199.77 672.577 1205.85 676.354 1208.11 675.34C1210.37 674.327 1202.8 665.686 1199.71 658.789C1196.62 651.892 1199.17 649.35 1196.91 650.364C1194.65 651.378 1193.59 658.783 1196.68 665.68Z" fill="black"/>
</svg>
