<svg width="2244" height="729" viewBox="0 0 2244 729" fill="none" xmlns="http://www.w3.org/2000/svg">
<path d="M34.9273 184.916L0 223.19V413.751C0 518.543 0.115272 604.312 0.345815 604.312C0.576358 604.312 6.68575 597.741 13.9479 589.672C21.21 581.717 36.7717 564.425 48.7599 551.513L70.3157 527.881V337.319C70.3157 232.413 70.2004 146.643 70.0852 146.758C69.8546 146.758 54.0624 163.935 34.9273 184.916Z" fill="white"/>
<path d="M110.092 167.279C112.282 169.239 140.062 188.376 175.681 212.124L211.3 235.987L319.771 236.103C426.512 236.103 428.357 236.103 438.846 238.639C494.984 251.666 534.868 305.618 530.948 362.913C527.836 407.988 498.096 449.029 457.175 464.937C435.273 473.353 435.273 473.353 354.468 473.468H281.846L281.27 364.296L280.694 255.009L245.766 288.786L210.724 322.449L210.839 398.074L210.954 473.699L202.655 481.769C198.044 486.265 182.021 501.136 167.151 514.97C152.281 528.804 139.255 540.793 138.333 541.715C136.835 542.983 158.736 543.214 287.034 542.983L437.463 542.638L450.143 539.986C489.566 531.57 520.805 514.509 549.968 485.573C574.175 461.479 589.506 434.734 597.691 402.685C612.907 343.315 599.766 281.985 561.957 236.679C531.986 200.711 494.753 178.577 449.221 169.47L436.31 166.818L272.625 166.472C171.07 166.357 109.4 166.587 110.092 167.279Z" fill="white"/>
<path d="M564.944 168.318C566.443 169.471 580.737 178.924 596.529 189.299C612.436 199.674 632.148 212.586 640.332 218.004C648.632 223.538 658.199 229.763 661.657 231.953L667.997 235.988L780.502 235.527C842.518 235.297 893.699 235.412 894.275 235.873C895.428 236.565 742.117 390.236 739.696 390.812C738.659 391.043 738.428 381.128 738.659 348.158C738.774 324.525 738.774 293.975 738.659 280.372L738.313 255.586L702.924 289.479L667.421 323.372L667.536 442.228V561.084L752.03 476.006L836.409 390.812L1004.82 560.161C1097.5 653.194 1173.58 729.165 1173.81 728.819C1174.16 728.473 1173.46 723.286 1172.31 717.291C1167.58 692.851 1153.75 620.569 1152.71 614.69L1151.45 608.349L1018.31 475.775L885.169 343.201L943.727 284.868C975.888 252.82 1016 213.047 1032.83 196.447L1063.38 166.358L812.778 166.243C570.593 166.243 562.293 166.358 564.944 168.318Z" fill="white"/>
<path d="M1293.23 227.569C1239.06 282.328 1175.66 346.54 1152.14 370.403C1128.74 394.267 1108.91 413.864 1108.34 413.864C1107.65 413.98 1097.04 403.95 1084.71 391.615L1062.34 369.135L1014.16 368.904C987.648 368.674 965.977 368.904 965.977 369.25C965.977 369.596 998.022 402.221 1037.1 441.647L1108.22 513.468L1134.27 487.069C1161.94 459.055 1287.93 331.092 1308.68 309.765L1321.01 297.084V420.09V543.211H1356.75H1392.48V335.703C1392.48 221.574 1392.25 128.196 1392.02 128.196C1391.79 128.196 1347.3 172.925 1293.23 227.569Z" fill="white"/>
<path d="M1497.61 39.7759L1462.8 79.6635L1463.03 318.758L1463.37 557.969L1480.09 540.561C1489.31 530.877 1522.97 495.601 1555.01 462.169L1613.23 401.3L1683.54 472.314L1753.86 543.328L1801.93 542.982L1850.11 542.636L1842.27 534.336C1838.01 529.725 1795.13 486.494 1747.06 438.306L1659.57 350.692L1670.4 339.394C1676.4 333.284 1705.44 303.08 1734.95 272.3C1764.35 241.52 1798.93 205.551 1811.49 192.409C1824.17 179.152 1834.78 167.854 1834.89 167.278C1835.12 166.701 1817.03 166.24 1789.02 166.24H1742.68L1725.16 184.34C1699.8 210.739 1661.29 251.088 1607.58 307.461C1560.09 357.378 1534.27 384.123 1533.46 384.123C1533.34 384.123 1533 297.662 1532.88 192.064L1532.54 0.00360107L1497.61 39.7759Z" fill="white"/>
<path d="M1977.48 167.396C1946.59 170.74 1912.36 184.343 1887.57 203.019C1820.72 253.281 1793.97 336.169 1819.68 414.1C1839.04 472.894 1887.8 519.468 1948.09 536.875C1969.42 542.985 1976.33 543.446 2033.39 542.87C2089.99 542.409 2090.68 542.294 2116.39 533.878C2161.23 519.122 2204.8 480.733 2225.2 437.963C2250.56 384.703 2249.64 320.376 2222.9 268.845C2196.5 218.12 2148.32 181.345 2092.64 169.587C2082.27 167.396 2076.85 167.051 2033.97 166.82C2008.03 166.589 1982.56 166.935 1977.48 167.396ZM2079.15 238.18C2120.19 246.826 2156.27 282.102 2167.11 324.18C2170.33 336.515 2171.49 360.263 2169.53 373.867C2162.96 419.403 2129.18 457.907 2085.84 469.435C2070.62 473.355 2055.29 474.392 2017.83 473.701C1981.87 473.009 1976.33 472.433 1960.66 467.014C1927.11 455.602 1900.25 428.28 1888.61 394.041C1878.12 363.261 1881 327.408 1896.22 299.164C1912.24 269.421 1943.36 244.751 1972.87 238.525C1984.52 235.989 2067.63 235.759 2079.15 238.18Z" fill="white"/>
</svg>
